<?xml version="1.0" encoding="UTF-8" standalone="no"?>
<!-- Created with Inkscape (http://www.inkscape.org/) -->
<svg
   xmlns:dc="http://purl.org/dc/elements/1.1/"
   xmlns:cc="http://creativecommons.org/ns#"
   xmlns:rdf="http://www.w3.org/1999/02/22-rdf-syntax-ns#"
   xmlns:svg="http://www.w3.org/2000/svg"
   xmlns="http://www.w3.org/2000/svg"
   xmlns:sodipodi="http://sodipodi.sourceforge.net/DTD/sodipodi-0.dtd"
   xmlns:inkscape="http://www.inkscape.org/namespaces/inkscape"
   id="svg5349"
   sodipodi:version="0.32"
   inkscape:version="0.46"
   width="2000"
   height="1181"
   version="1.0"
   sodipodi:docname="H1N1_Honduras_Map_by_affected_areas.svg"
   inkscape:output_extension="org.inkscape.output.svg.inkscape">
  <metadata
     id="metadata5354">
    <rdf:RDF>
      <cc:Work
         rdf:about="">
        <dc:format>image/svg+xml</dc:format>
        <dc:type
           rdf:resource="http://purl.org/dc/dcmitype/StillImage" />
      </cc:Work>
    </rdf:RDF>
  </metadata>
  <defs
     id="defs5352">
    <inkscape:perspective
       sodipodi:type="inkscape:persp3d"
       inkscape:vp_x="0 : 526.18109 : 1"
       inkscape:vp_y="0 : 1000 : 0"
       inkscape:vp_z="744.09448 : 526.18109 : 1"
       inkscape:persp3d-origin="372.04724 : 350.78739 : 1"
       id="perspective5356" />
  </defs>
  <sodipodi:namedview
     inkscape:window-height="744"
     inkscape:window-width="1280"
     inkscape:pageshadow="2"
     inkscape:pageopacity="0.0"
     guidetolerance="10.0"
     gridtolerance="10.0"
     objecttolerance="10.0"
     borderopacity="1.0"
     bordercolor="#666666"
     pagecolor="#ffffff"
     id="base"
     showgrid="false"
     inkscape:zoom="0.41163358"
     inkscape:cx="586.50969"
     inkscape:cy="564.57765"
     inkscape:window-x="-4"
     inkscape:window-y="-4"
     inkscape:current-layer="svg5349"
     showguides="true"
     inkscape:guide-bbox="true" />
  <path
     style="opacity:0.98999999000000005;fill:#5599ff;fill-opacity:0.96862744999999995;stroke:#dfc3a3;stroke-width:0;stroke-linecap:round;stroke-linejoin:miter;stroke-miterlimit:4;stroke-dasharray:none;stroke-dashoffset:0;stroke-opacity:0.09523812000000000"
     d="M 747.051,1160.1385 C 743.71718,1158.2904 735.48133,1157.9283 712.58405,1158.6228 C 685.81306,1159.4349 682.49769,1159.2103 682.49769,1156.5852 C 682.49769,1152.842 676.94052,1149.8293 670.0358,1149.8293 C 664.83942,1149.8293 658.60063,1145.1008 658.60063,1141.1623 C 658.60063,1140.0933 661.49585,1137.8449 665.03445,1136.1657 C 677.82262,1130.0973 670.77855,1124.1723 648.63473,1122.3714 C 636.44782,1121.3802 635.84023,1121.1041 634.22153,1115.8219 C 633.29203,1112.7888 630.95227,1106.8006 629.02199,1102.5147 C 627.09168,1098.2288 625.5124,1094.3242 625.5124,1093.8376 C 625.5124,1089.8759 615.64464,1072.6234 613.37868,1072.6234 C 611.00721,1072.6234 610.94705,1072.2202 613.01094,1070.1564 C 614.36778,1068.7994 617.31234,1066.7076 619.55436,1065.5077 C 621.79633,1064.3078 624.11298,1061.4047 624.7024,1059.0563 C 625.47616,1055.9732 630.13104,1052.5466 641.45271,1046.726 C 661.39096,1036.4755 664.78905,1032.012 663.4094,1017.8859 C 660.46898,987.77959 660.58547,988.17514 653.82832,985.35181 C 647.01247,982.50396 645.04523,978.95655 642.68868,965.26455 C 641.20532,956.64562 639.59317,954.63027 632.40578,952.40929 C 628.2594,951.12806 628.15611,942.11808 632.15333,930.38689 C 634.5385,923.38681 635.85495,921.79615 638.88999,922.24692 C 641.53087,922.63915 643.27778,925.01244 644.71482,930.16014 C 647.50249,940.14593 656.43907,944.76639 676.0757,946.37457 C 699.54012,948.29617 699.04181,947.96847 699.04181,961.47848 C 699.04181,972.90996 699.11784,973.08325 704.66675,974.302 C 708.05118,975.04534 710.90368,977.14712 711.82819,979.57874 C 714.0842,985.51257 718.66901,988.64091 724.85181,988.46512 C 729.15738,988.34271 731.75613,990.03525 737.126,996.45924 C 742.89512,1003.3611 744.96295,1004.6087 750.63317,1004.6087 C 755.2271,1004.6087 758.88482,1003.1662 762.28721,1000.0131 C 765.01442,997.48551 767.96479,995.41749 768.84346,995.41749 C 769.72195,995.41749 770.99015,992.91654 771.66148,989.85981 C 772.55725,985.78201 775.46975,982.64685 782.59971,978.08593 C 790.76662,972.86165 792.52784,970.74187 793.63813,964.80172 C 795.3021,955.89771 797.57582,953.13808 803.24806,953.13808 C 807.74659,953.13808 814.96295,950.12575 816.68887,947.52755 C 817.19438,946.76652 820.59916,945.88667 824.25486,945.57227 C 829.90449,945.08643 831.86644,946.02343 837.32949,951.8161 C 843.48188,958.33946 843.67306,958.94707 841.79181,965.99508 C 839.83868,973.31264 840.48372,977.59564 845.8078,992.66014 C 849.92618,1004.313 852.39548,1024.996 850.10615,1028.662 C 846.81718,1033.9284 847.51056,1042.7832 851.526,1046.7988 C 856.05394,1051.3267 857.29806,1066.5517 853.34438,1069.0532 C 849.19346,1071.6796 844.98997,1071.1054 836.68666,1066.7775 C 832.17251,1064.4245 825.43574,1062.7168 820.37104,1062.6414 C 812.32361,1062.5217 810.9532,1063.2434 799.97012,1073.3842 C 787.72784,1084.6877 784.95523,1090.4179 785.21736,1103.8734 C 785.74953,1131.1829 785.60817,1132.2328 780.83427,1136.4292 C 778.29218,1138.6639 775.4078,1142.608 774.42471,1145.1938 C 773.44144,1147.7796 770.41074,1150.7417 767.6896,1151.7762 C 764.96846,1152.8109 760.85707,1155.6912 758.5532,1158.1771 C 753.76846,1163.34 753.04824,1163.4628 747.051,1160.1384 L 747.051,1160.1385 z"
     id="path5360" />
  <path
     style="opacity:0.98999999000000005;fill:#aaaaff;fill-opacity:1;stroke:#dfc3a3;stroke-width:0;stroke-linecap:round;stroke-linejoin:miter;stroke-miterlimit:4;stroke-dasharray:none;stroke-dashoffset:0;stroke-opacity:0.09523812000000000"
     d="M 742.48133,991.76246 C 736.18115,984.95319 733.57655,983.60628 723.87197,982.13939 C 721.85758,981.83486 719.09025,979.25051 717.72227,976.39632 C 716.35429,973.54212 712.83236,970.36929 709.89576,969.34558 C 705.14144,967.68819 704.55651,966.63573 704.55651,959.73821 L 704.55651,951.99211 L 718.49374,952.10553 C 731.54903,952.21179 732.71203,951.89264 736.876,947.06132 C 741.92048,941.20837 742.63354,934.45678 738.56387,931.07926 C 735.31901,928.38622 735.00798,921.05084 737.79934,913.04361 C 739.73464,907.492 739.89475,907.42253 743.34512,910.63705 C 753.0146,919.64564 760.6407,919.98782 770.31515,911.84729 C 775.33409,907.62411 775.7964,906.11214 777.20118,889.32837 C 778.02949,879.43293 778.5624,867.85937 778.38537,863.6094 L 778.06368,855.8822 L 787.19273,856.96339 C 795.60817,857.96007 796.48317,857.69021 798.3874,853.51093 C 801.17085,847.40216 797.88776,835.38433 791.87894,829.68514 C 786.45118,824.53709 786.00559,818.46442 790.72545,813.96337 C 792.62214,812.15466 794.80173,808.60683 795.56901,806.07926 C 796.33666,803.55168 799.22416,798.89198 801.98611,795.72437 C 804.74806,792.55676 807.60265,786.79448 808.32968,782.91929 C 809.0567,779.04413 811.23997,774.76087 813.18151,773.401 C 815.12287,772.04117 818.23133,767.87696 820.08905,764.14727 C 826.62398,751.02744 830.13445,746.29742 836.37692,742.20058 C 839.84309,739.92576 843.58298,738.06455 844.68795,738.06455 C 849.60872,738.06455 862.31442,728.59396 864.51221,723.28812 C 866.42306,718.67499 867.63298,717.79779 870.73868,718.77402 C 872.85872,719.44047 878.40486,720.67621 883.0635,721.52012 C 887.72214,722.36404 894.82214,724.0397 898.84126,725.24385 C 905.46313,727.22782 907.11865,726.97428 916.48979,722.54102 C 926.79824,717.66433 929.32986,717.5124 945.20541,720.81746 C 947.64512,721.32534 953.43556,725.75825 958.07306,730.66836 L 966.50504,739.59582 L 988.56387,735.31836 L 1010.6227,731.04097 L 1014.2992,735.07876 C 1018.2694,739.43931 1023.2129,746.22016 1032.3034,759.77496 C 1038.1361,768.4719 1040.1354,771.16303 1043.9771,775.4874 C 1046.6585,778.50597 1075.7633,782.90371 1082.8124,781.35545 C 1085.8699,780.68389 1091.6256,781.36468 1096.296,782.95029 C 1100.7778,784.47189 1114.355,788.18602 1126.4675,791.20391 C 1138.5799,794.22178 1158.0032,799.16249 1169.63,802.18326 C 1229.0528,817.62194 1228.0598,817.05137 1210.383,825.60187 C 1203.4221,828.96887 1194.3394,835.11124 1190.199,839.25161 C 1183.7098,845.74082 1181.4813,846.82508 1174.0488,847.10955 C 1164.0973,847.49043 1163.5418,848.2088 1160.5328,864.59086 C 1158.8843,873.56663 1158.8992,876.83435 1160.5982,878.88161 C 1161.8098,880.34137 1162.4764,881.75054 1162.0795,882.01306 C 1160.817,882.84825 1148.2799,886.96161 1146.997,886.96161 C 1146.319,886.96161 1143.1861,882.39314 1140.0348,876.80942 C 1133.3986,865.05025 1129.3163,862.28665 1120.9117,863.86334 C 1115.6076,864.85841 1113.985,864.11345 1107.778,857.83312 C 1103.883,853.89205 1097.3069,848.95492 1093.1646,846.86167 C 1089.0221,844.76839 1084.1712,840.82505 1082.3848,838.09865 C 1079.5607,833.78872 1079.4367,832.2328 1081.4341,826.18091 C 1085.1321,814.97558 1083.1999,812.75104 1070.7859,813.92189 C 1064.994,814.46815 1057.7734,816.23078 1054.7403,817.8388 C 1051.7072,819.44683 1048.2517,820.76758 1047.0613,820.77382 C 1044.0751,820.78944 1037.2771,829.76306 1037.2771,833.68928 C 1037.2771,837.21867 1029.9172,842.84396 1025.2995,842.84396 C 1023.6955,842.84396 1021.2328,845.59823 1019.8262,848.96457 C 1018.4197,852.33087 1015.9199,856.20479 1014.271,857.57321 C 1012.6221,858.94165 1009.6988,863.14712 1007.7747,866.91874 C 1005.8504,870.69036 1000.5341,876.84258 995.96056,880.59036 C 988.54732,886.66488 987.64346,888.22843 987.63317,894.99554 C 987.62306,901.59262 986.8407,903.05367 981.6589,906.15339 C 974.91387,910.18817 953.56129,911.55983 949.2192,908.23723 C 947.80008,907.15146 941.851,906.22799 935.99879,906.18512 C 928.30835,906.12878 924.31718,905.16485 921.60247,902.70799 C 918.05743,899.49977 917.30265,899.47212 908.16828,902.21565 C 892.6657,906.87196 883.501,907.68486 873.99015,905.24731 C 866.0771,903.21924 863.82287,903.41887 852.41037,907.15834 C 835.89677,912.56929 833.23298,914.9983 833.23298,924.64543 C 833.23298,933.51753 829.13262,938.4322 821.73059,938.4322 C 819.1021,938.4322 815.84126,939.54236 814.48445,940.89922 C 810.54751,944.83624 804.41644,947.62337 799.69309,947.62337 C 793.29383,947.62337 787.97251,953.56628 786.58133,962.26644 C 785.54879,968.72251 784.39548,970.30571 779.11883,972.51045 C 773.11074,975.02078 765.21828,983.73924 765.21828,987.86571 C 765.21828,989.50341 752.15578,999.09396 749.92508,999.09396 C 749.56184,999.09396 746.21221,995.79477 742.48133,991.76242 L 742.48133,991.76246 z"
     id="path5362" />
  <path
     style="opacity:0.98999999000000005;fill:#ababff;fill-opacity:0.99215686;stroke:#dfc3a3;stroke-width:0;stroke-linecap:round;stroke-linejoin:miter;stroke-miterlimit:4;stroke-dasharray:none;stroke-dashoffset:0;stroke-opacity:0.09523812000000000"
     d="M 570.36534,889.22944 C 568.84879,888.73152 564.13775,886.77674 559.89633,884.88551 C 549.94368,880.44764 545.30186,880.51753 544.09741,885.12337 C 542.59539,890.867 539.96811,889.53152 533.77126,879.87457 C 524.00962,864.6624 525.37811,865.13415 491.31058,865.23751 C 465.25543,865.31655 460.02067,865.82192 454.09695,868.82997 C 447.21238,872.326 447.20357,872.32554 447.20357,868.48439 C 447.20357,863.2794 438.49528,848.74646 433.90407,846.28931 C 431.41984,844.95981 422.83183,844.74501 407.90848,845.63915 L 385.62269,846.97439 L 394.35431,838.60119 C 399.1567,833.99586 403.08593,829.36413 403.08593,828.30845 C 403.08593,827.25275 400.1907,823.7544 396.6521,820.53435 C 388.97655,813.54979 388.69558,810.25654 394.9323,800.37692 C 398.28308,795.06893 402.19429,791.85054 408.45714,789.2478 C 414.94383,786.55207 418.33786,783.68258 421.32398,778.3695 C 423.73392,774.08152 426.74445,771.15279 428.74218,771.15279 C 430.59142,771.15279 432.54559,770.00293 433.0849,768.59755 C 434.32907,765.35516 444.69543,760.12337 449.8757,760.12337 C 454.5142,760.12337 458.23298,756.88461 458.23298,752.84497 C 458.23298,751.2683 459.8874,748.94512 461.90945,747.68233 C 463.93151,746.41955 465.58593,743.84023 465.58593,741.95053 C 465.58593,740.06082 466.82673,737.48494 468.34328,736.22632 C 469.90116,734.93337 471.10063,730.92606 471.10063,727.01415 C 471.10063,720.21279 471.3415,719.97598 484.72298,713.62115 L 498.34532,707.15192 L 507.2414,710.0424 C 512.13418,711.63216 521.34273,715.42034 527.70479,718.4606 C 540.20013,724.43178 557.62866,727.06396 561.79199,723.60872 C 564.84914,721.0715 567.79416,726.3133 569.4383,737.21848 L 570.55787,744.64451 L 560.81087,749.01369 C 554.85464,751.68363 546.4169,753.65407 539.11534,754.08018 C 522.40732,755.05525 520.11804,755.72496 514.58706,761.25593 C 508.26706,767.57591 508.43243,770.19904 515.56142,776.71036 C 520.90513,781.59104 521.21133,782.44922 519.05025,786.48723 C 515.93793,792.30262 518.99354,798.28065 525.84118,799.77315 C 535.42172,801.86128 540.79293,804.64117 543.63863,808.98426 C 545.21394,811.38854 548.90887,814.59986 551.84949,816.12053 C 556.5755,818.5644 557.80037,818.57018 562.40203,816.1701 C 571.74922,811.29494 574.04181,812.40396 574.04181,821.80093 C 574.04181,826.40376 575.34708,835.90854 576.94241,842.92269 C 579.58357,854.53508 579.58392,857.18411 576.94605,872.54051 C 575.35275,881.81617 573.84065,889.56944 573.58589,889.77003 C 573.33118,889.97065 571.88188,889.72736 570.36534,889.22944 z"
     id="path5366" />
  <path
     style="opacity:0.98999999000000005;fill:#ababff;fill-opacity:0.99215686;stroke:#dfc3a3;stroke-width:0;stroke-linecap:round;stroke-linejoin:miter;stroke-miterlimit:4;stroke-dasharray:none;stroke-dashoffset:0;stroke-opacity:0.09523812000000000"
     d="M 297.95074,866.24562 C 295.37945,858.2956 295.93968,847.92678 299.22563,842.6486 C 300.23666,841.02462 306.85431,836.84516 313.93151,833.36097 C 330.75252,825.07975 349.2874,813.2317 350.85914,809.75573 C 351.5449,808.23918 352.4546,797.68378 352.88076,786.29929 C 353.58249,767.55075 353.34291,765.50736 350.33765,764.61488 C 348.51282,764.07293 343.32162,761.80665 338.8017,759.57867 C 329.29888,754.89448 328.16567,752.14931 327.90151,733.1728 C 327.72973,720.8308 327.36519,719.71192 322.06252,715.25001 C 318.95186,712.63255 314.60905,710.47836 312.41179,710.46288 C 310.21453,710.44742 307.44839,709.81871 306.26475,709.06578 C 302.73982,706.82354 301.48966,698.25428 303.70719,691.53503 L 305.78096,685.25146 L 321.80471,684.01551 C 347.18859,682.05762 349.65629,681.3619 350.88786,675.81632 C 352.72036,667.5647 357.68539,655.02163 364.44116,641.57685 L 370.91681,628.68955 L 382.86534,627.38582 C 389.43703,626.66878 398.32949,625.54788 402.62637,624.89496 C 407.30039,624.18473 410.43887,624.42988 410.43887,625.50525 C 410.43887,627.21738 414.14096,627.9101 441.68887,631.35268 C 460.07648,633.65054 461.52543,634.46779 465.11126,644.56393 C 466.87161,649.52023 471.00732,656.60518 474.30183,660.30828 C 477.59629,664.01139 480.29181,668.92137 480.29181,671.21933 C 480.29181,675.92828 486.37256,682.64518 497.00585,689.68196 C 500.95646,692.29639 504.18887,694.72233 504.18887,695.07293 C 504.18887,695.42358 500.67324,697.47803 496.37637,699.63843 C 492.07949,701.79883 487.32306,704.57067 485.80651,705.79808 C 484.28997,707.02547 479.11993,709.47915 474.31754,711.25065 C 465.7562,714.40876 465.58593,714.62553 465.58593,722.3665 C 465.58593,727.14165 464.49633,731.16573 462.82857,732.54985 C 461.31203,733.80847 460.07122,736.34446 460.07122,738.1854 C 460.07122,740.02635 458.51561,742.62214 456.61433,743.95385 C 454.71304,745.28558 452.84291,748.0083 452.45852,750.00439 C 451.96684,752.55727 449.76795,753.95735 445.04422,754.72518 C 437.78423,755.90523 428.82122,760.94233 428.82122,763.84222 C 428.82122,764.82996 427.17719,765.63808 425.1678,765.63808 C 422.90635,765.63808 419.75087,768.43168 416.88558,772.9706 C 414.03627,777.48415 409.62017,781.40475 405.39865,783.16863 C 396.26743,786.98389 390.45295,792.57143 386.33968,801.48367 C 380.82947,813.42279 382.0103,817.81394 392.69352,825.11075 C 395.84081,827.26045 395.39381,828.09034 386.55013,836.51523 C 381.30438,841.5126 372.63922,849.86178 367.29423,855.069 C 356.70911,865.38133 352.8771,866.46586 324.04181,867.31025 C 316.77734,867.52297 309.8142,868.90718 306.2796,870.84121 L 300.46596,874.02227 L 297.95074,866.24562 z"
     id="path5368" />
  <path
     style="opacity:0.98999999000000005;fill:#5499ff;fill-opacity:0.99215686;stroke:#dfc3a3;stroke-width:0;stroke-linecap:round;stroke-linejoin:miter;stroke-miterlimit:4;stroke-dasharray:none;stroke-dashoffset:0;stroke-opacity:0.09523812000000000"
     d="M 550.76015,805.95764 C 544.92107,799.64198 536.8107,794.641 529.92416,793.10986 C 527.09074,792.47992 525.60115,791.06999 526.0394,789.43295 C 528.37833,780.69608 528.04313,779.136 522.64175,773.62299 L 516.95745,767.82115 L 521.85047,763.97223 C 525.51598,761.08894 529.37058,760.12337 537.21543,760.12337 C 548.54602,760.12337 570.67901,754.03238 574.98111,749.73029 C 577.0115,747.6999 577.36677,744.36755 576.47977,735.67339 C 575.84036,729.4058 574.59918,723.99624 573.72168,723.65214 C 572.84414,723.30806 570.88157,720.61962 569.36034,717.67788 C 566.14133,711.45312 562.13048,710.78405 559.33593,716.00573 C 556.52655,721.25508 549.42479,720.65183 535.43887,713.9758 C 528.86718,710.83889 519.35431,707.00168 514.29916,705.44869 C 509.24401,703.89571 506.14199,702.25795 507.40578,701.80926 C 508.66956,701.36056 509.70357,698.63361 509.70357,695.74937 C 509.70357,691.42503 507.76912,689.1483 498.67416,682.76856 C 489.79398,676.53946 487.64475,674.05769 487.64475,670.0326 C 487.64475,667.05959 485.38536,662.51091 482.07034,658.80997 C 479.00438,655.38714 474.5539,648.45058 472.18032,643.39543 C 465.71105,629.61747 461.99798,627.08036 447.06855,626.23678 C 440.06558,625.8411 434.33593,624.96731 434.33593,624.29505 C 434.33593,623.62284 435.99034,621.65624 438.0124,619.9249 C 442.74833,615.86986 442.6899,610.38911 437.85922,605.55843 L 434.02951,601.72878 L 440.39613,595.36222 C 446.62328,589.13505 470.666,572.69777 484.47775,565.22497 C 488.29653,563.1588 495.95697,557.36056 501.50089,552.33997 C 507.04484,547.31939 512.53655,543.21161 513.70477,543.21161 C 514.87302,543.21161 521.89548,539.43041 529.31032,534.80896 C 539.90411,528.20613 542.79181,525.47317 542.79181,522.04981 C 542.79181,519.65372 541.9646,517.18205 540.95357,516.5572 C 539.94254,515.93235 539.11534,513.83128 539.11534,511.88815 C 539.11534,506.89016 545.63361,505.747 565.7232,507.22166 C 582.27227,508.43643 582.92578,508.33644 586.2762,504.07709 C 592.56313,496.08451 596.69936,495.02997 603.13583,499.77867 C 606.94488,502.58891 608.23576,504.60589 607.00984,505.83181 C 604.15686,508.68479 606.74287,513.03154 614.48504,518.39687 C 620.14795,522.32121 621.8183,524.83663 622.82773,530.95985 C 623.52186,535.17073 624.9248,539.65003 625.94532,540.91382 C 629.07377,544.7881 642.76512,543.71018 648.58624,539.13128 C 655.10936,534.00018 663.3787,534.58084 681.80776,541.46409 C 687.35137,543.53464 689.64653,558.57966 685.17289,563.52299 C 682.94738,565.98214 682.38195,568.68861 683.19078,573.01041 C 686.28416,589.53928 686.43337,592.92249 684.34795,599.24135 C 682.71001,604.20442 680.43596,606.76065 676.01578,608.60753 C 668.60854,611.70249 663.02293,619.16815 661.3189,628.25133 C 660.21907,634.11378 659.58591,634.79624 656.68631,633.24442 C 651.99295,630.73264 644.39916,631.00279 642.62457,633.7447 C 641.80662,635.00848 640.31019,640.15345 639.29916,645.17793 C 637.62471,653.49944 636.88769,654.46896 631.0271,656.05964 C 622.82672,658.28538 623.44804,657.56852 621.75293,666.76007 C 620.02098,676.15168 622.47988,680.82564 636.53499,694.8578 C 645.00949,703.31843 645.73298,704.73183 645.73298,712.82611 C 645.73298,720.71725 645.21881,721.80692 640.6812,723.53211 C 633.02054,726.44468 629.8339,730.11429 627.39219,738.83519 C 625.51883,745.52643 625.62664,747.65922 628.0782,752.40003 C 631.79536,759.58825 630.31127,767.26633 623.83398,774.35806 C 621.09707,777.35464 617.20289,782.07806 615.18039,784.8545 C 611.9358,789.30861 610.00223,790.01339 598.74673,790.84437 C 584.04848,791.92953 579.21638,794.34814 575.93903,802.2604 C 573.98778,806.97102 572.57484,807.91749 567.49346,807.91749 C 564.13721,807.91749 560.8799,808.7447 560.25504,809.75573 C 558.39707,812.762 556.26102,811.90755 550.76013,805.95766 L 550.76015,805.95764 z"
     id="path5370" />
  <path
     style="opacity:0.98999999000000005;fill:#ababff;fill-opacity:0.99215686;stroke:#dfc3a3;stroke-width:0;stroke-linecap:round;stroke-linejoin:miter;stroke-miterlimit:4;stroke-dasharray:none;stroke-dashoffset:0;stroke-opacity:0.09523812000000000"
     d="M 354.54311,629.00376 C 351.72515,619.31032 351.71749,618.00051 354.44495,612.2528 C 358.68247,603.3229 357.4423,595.76203 351.61534,595.00154 C 343.68719,593.96685 336.82078,580.68205 342.42416,577.21896 C 343.43519,576.59411 344.2624,573.66915 344.2624,570.71904 C 344.2624,564.93051 339.8223,560.94685 330.93519,558.76181 C 328.15486,558.07821 325.88004,556.83714 325.88004,556.00385 C 325.88004,553.66223 319.3267,552.13205 314.49343,553.34514 C 312.02979,553.96348 309.07655,556.85453 307.67561,560.01946 C 305.39464,565.17251 304.97368,565.37286 302.21488,562.61861 C 300.57078,560.97725 295.5032,552.00996 290.95357,542.69133 L 282.68151,525.74837 L 267.97563,526.07508 C 259.8874,526.25477 250.37453,526.66837 246.83593,526.9942 C 241.13712,527.51893 240.34021,527.05626 239.86028,522.94437 C 239.19971,517.28483 248.94798,498.30628 256.23583,491.06334 C 262.66754,484.6713 262.96372,479.03104 257.23067,472.12104 C 254.85958,469.26315 252.38526,464.16968 251.73225,460.80227 C 251.07931,457.43484 247.64243,451.28872 244.09486,447.14418 C 239.36186,441.61472 237.64475,437.88146 237.64475,433.1206 C 237.64475,427.76986 236.1767,425.2847 229.27013,418.94378 L 220.89554,411.25507 L 226.33697,407.3804 C 229.3298,405.24933 232.24245,403.50573 232.80953,403.50573 C 236.53679,403.50573 251.80208,391.28992 260.02773,381.72484 C 267.03526,373.57626 271.73966,369.82187 276.59638,368.50211 C 280.32675,367.48843 283.8426,365.19806 284.40933,363.41246 C 286.36828,357.24032 302.403,345.87082 315.25021,341.54457 C 327.17747,337.5281 334.63763,337.36348 339.66681,341.00573 C 340.67784,341.73793 343.98666,342.90624 347.01975,343.60194 C 350.05284,344.29766 358.90434,346.55929 366.68975,348.62782 L 380.84501,352.38878 L 384.77942,364.62005 C 389.20615,378.38214 398.49113,388.83654 409.51968,392.4763 L 415.95357,394.59968 L 415.95357,409.34473 C 415.95357,426.36483 419.15341,435.01869 427.20548,439.77516 C 430.11622,441.49455 432.49769,443.41347 432.49769,444.03939 C 432.49769,444.6653 430.03431,447.37231 427.02352,450.05494 C 420.36831,455.98479 419.27081,459.90746 419.99142,475.18984 C 420.51694,486.33433 420.91015,487.26062 426.79526,491.21769 C 430.23061,493.5276 435.81427,495.41749 439.20335,495.41749 C 446.75966,495.41749 446.98929,497.58391 440.79412,510.42587 C 438.28001,515.63751 435.72181,523.69869 435.10934,528.33966 C 434.07343,536.18955 434.38615,537.06558 439.59583,540.90621 C 445.5173,545.27161 446.37493,548.1263 447.8453,568.36578 L 448.67111,579.73319 L 441.75058,584.52916 C 437.94423,587.16694 433.2899,592.18488 431.40758,595.68012 C 428.06308,601.89045 428.06501,602.18336 431.49168,608.54633 C 434.98127,615.02622 434.97929,615.07643 431.06596,618.98973 C 427.41335,622.64238 426.4585,622.7661 417.63648,620.72972 C 405.90032,618.02069 374.53322,619.73746 368.65241,623.41065 C 366.39594,624.82007 362.98611,629.0211 361.07495,632.74633 L 357.60015,639.51948 L 354.54311,629.00376 z"
     id="path5372" />
  <path
     style="opacity:0.98999999000000005;fill:#acacff;fill-opacity:0.98431373;stroke:#dfc3a3;stroke-width:0;stroke-linecap:round;stroke-linejoin:miter;stroke-miterlimit:4;stroke-dasharray:none;stroke-dashoffset:0;stroke-opacity:0.09523812000000000"
     d="M 690.9073,569.86602 C 691.66763,566.83293 692.32445,559.22685 692.36697,552.96361 C 692.43594,542.79655 691.89129,541.06345 687.28548,536.79492 C 684.44819,534.16541 680.76258,532.17893 679.0953,532.38058 C 677.42798,532.58225 674.82306,532.22815 673.30651,531.59372 C 662.48951,527.06854 647.57122,526.43352 647.57122,530.49826 C 647.57122,533.80882 638.40181,538.10093 633.79786,536.9454 C 629.85521,535.95584 629.18887,534.74325 629.18887,528.55733 C 629.18887,522.33111 628.16684,520.50472 621.83593,515.41705 C 616.10629,510.81258 614.48298,508.24858 614.48298,503.80306 C 614.48298,498.96597 613.26692,497.43376 606.48923,493.7313 C 597.01979,488.55843 590.88186,489.39793 583.53423,496.87093 C 578.72832,501.75883 578.27903,501.83916 559.33593,501.19663 C 548.72012,500.83654 539.09457,499.77937 537.9458,498.84733 C 536.38723,497.58277 536.39515,495.33062 537.97699,489.97328 C 539.14289,486.02457 540.70319,482.18747 541.44431,481.44635 C 544.22001,478.67067 542.5839,474.07054 536.44293,467.3844 C 532.94203,463.57271 528.36743,460.49102 526.2101,460.49102 C 524.06429,460.49102 521.06905,459.25146 519.55401,457.73643 C 518.039,456.22141 514.58245,454.44086 511.87282,453.77964 C 509.16322,453.11845 504.97344,451.04918 502.56229,449.1813 C 500.15118,447.31343 495.74922,445.78514 492.78025,445.78514 C 486.41572,445.78514 482.13004,442.0908 482.13004,436.60442 C 482.13004,434.44367 481.23745,431.00797 480.1465,428.96951 C 478.5596,426.0044 478.83532,424.76926 481.52517,422.79303 C 483.37438,421.4344 484.97172,418.81378 485.07479,416.96942 C 485.58366,407.86328 485.9408,407.32359 492.24034,406.14179 C 495.77894,405.47795 498.67416,403.97808 498.67416,402.80874 C 498.67416,401.63944 500.74218,397.63933 503.26975,393.91968 C 505.79732,390.20001 507.86534,385.96845 507.86534,384.51619 C 507.86534,383.06391 509.51975,381.44306 511.54181,380.91428 C 515.65074,379.83977 516.74298,370.83926 513.19501,367.29128 C 511.72276,365.81904 512.22344,364.93418 515.03324,364.0424 C 517.79997,363.16428 518.89475,361.28847 518.89475,357.42597 C 518.89475,354.461 518.06754,352.03514 517.05651,352.03514 C 514.15743,352.03514 514.91515,346.52137 517.97563,345.34696 C 519.68686,344.69029 520.73298,341.8908 520.73298,337.96815 C 520.73298,333.80387 522.19113,330.18929 525.00694,327.37348 C 531.21519,321.16527 533.60767,313.6735 532.10083,305.16014 C 530.84539,298.06681 530.52433,297.78723 523.00883,297.24194 C 516.12762,296.74268 515.21828,296.15264 515.21828,292.18679 C 515.21828,289.71736 515.94901,287.6969 516.84212,287.6969 C 517.73525,287.6969 518.89859,286.04249 519.42738,284.02043 C 520.94302,278.22477 526.98589,279.58319 540.92708,288.85347 C 554.88892,298.13746 554.56523,297.60687 557.60447,316.18955 C 559.80181,329.6247 565.96256,341.2476 572.98927,345.21464 C 575.17988,346.45137 584.61194,347.3813 595.18151,347.40257 C 610.53388,347.43347 614.90832,346.76777 621.72037,343.36394 C 631.83184,338.3115 634.70357,340.0847 634.70357,351.38051 C 634.70357,358.22212 635.41098,359.78922 639.29916,361.56078 C 641.82673,362.71244 643.89475,364.25484 643.89475,364.98839 C 643.89475,367.46347 656.35037,372.25573 662.78335,372.25573 C 666.29482,372.25573 672.68464,371.01492 676.98298,369.49837 C 681.28133,367.98183 688.37512,366.74102 692.74694,366.74102 C 698.53767,366.74102 702.91425,365.24376 708.86697,361.22632 C 715.71004,356.60797 718.84468,355.71161 728.15212,355.71161 C 734.26479,355.71161 739.77729,354.8844 740.4021,353.87337 C 741.02692,352.86234 744.10541,352.03514 747.24309,352.03514 C 752.5885,352.03514 768.02453,343.72674 772.34034,338.52655 C 774.1749,336.31597 794.74457,337.39576 838.74769,342.01255 C 850.35302,343.23018 851.02839,343.06209 862.25909,336.1617 C 888.13832,320.2608 899.65817,317.24999 909.62692,323.7817 C 914.87048,327.21742 929.78188,327.48126 939.39567,324.30845 C 945.83795,322.18234 956.39475,324.76236 956.39475,328.46279 C 956.39475,331.20212 976.46589,339.63538 980.48445,338.5845 C 983.17012,337.88212 985.201,339.28128 988.18611,343.891 C 992.66589,350.80871 993.20468,350.98166 1002.2197,348.39622 C 1010.0784,346.1424 1013.9234,348.78029 1012.64,355.54496 C 1012.1429,358.16416 1011.217,364.536 1010.5822,369.70455 C 1009.4872,378.62264 1008.7775,379.63736 996.66552,389.60143 L 983.90284,400.10095 L 978.23225,395.32961 C 975.11368,392.70534 969.13115,388.97988 964.93795,387.05078 C 960.74475,385.12168 956.27287,381.83082 955.00045,379.73777 C 951.97434,374.75959 942.8124,374.62573 939.39162,379.50968 C 936.71111,383.33678 927.06129,386.94722 909.90173,390.54334 C 903.14401,391.95953 898.44953,394.06332 897.05137,396.30198 C 895.45394,398.85994 892.75008,399.82926 887.2124,399.82926 C 883.01258,399.82926 873.90541,401.57606 866.97434,403.71102 C 852.25559,408.24492 845.87526,414.24549 841.37876,427.78286 C 839.44714,433.59837 836.96497,437.37339 834.42526,438.35825 C 832.25302,439.20064 827.16681,443.13683 823.12269,447.10541 C 808.7953,461.16508 807.49769,463.2467 807.49769,472.16961 C 807.49769,479.77122 806.51607,481.67499 797.20596,492.13109 C 791.54585,498.48826 785.6374,504.41698 784.07673,505.30604 C 782.31809,506.30777 776.53979,505.7883 768.8828,503.94023 C 757.51699,501.19692 755.21773,501.19416 740.19236,503.90569 C 716.74416,508.13723 715.58593,509.13244 715.58593,525.04742 C 715.58593,535.46678 714.78876,539.16801 711.57151,543.68621 C 709.36359,546.78696 707.08048,552.25615 706.49795,555.83997 C 705.72096,560.61996 704.33243,562.62183 701.2862,563.35367 C 699.00227,563.90238 695.42166,566.83293 693.32929,569.86602 L 689.52504,575.38073 L 690.9073,569.86602 z"
     id="path5374" />
  <path
     style="opacity:0.98999999000000005;fill:#acacff;fill-opacity:0.98431373;stroke:#dfc3a3;stroke-width:0;stroke-linecap:round;stroke-linejoin:miter;stroke-miterlimit:4;stroke-dasharray:none;stroke-dashoffset:0;stroke-opacity:0.09523812000000000"
     d="M 1224.8703,812.62521 C 1222.5225,809.7965 1206.1907,804.40317 1185.255,799.54301 C 1178.1778,797.90007 1171.1466,796.08545 1169.63,795.5106 C 1166.7677,794.4256 1139.5269,787.25207 1108.4879,779.40962 C 1098.4223,776.86633 1086.3166,775.03968 1080.9144,775.24893 C 1075.6181,775.45405 1066.0012,774.4206 1059.544,772.95236 C 1049.5091,770.67064 1047.1815,769.34457 1043.5223,763.82442 C 1041.1675,760.27231 1036.7587,754.0572 1033.7247,750.01308 C 1030.6907,745.96896 1025.2957,738.31731 1021.7361,733.0094 C 1014.7824,722.6408 1014.3815,722.47442 1003.2697,725.34771 C 994.69162,727.56589 970.83115,732.54451 968.7635,732.54768 C 967.98354,732.54889 966.41754,730.51341 965.28335,728.02442 C 961.91773,720.63757 949.82434,713.94264 935.97453,711.79889 C 923.92582,709.93391 923.23795,710.0385 916.40449,714.77409 C 908.31056,720.38334 903.85596,720.82132 894.53041,716.92485 C 890.90082,715.4083 885.92306,714.16749 883.46865,714.16749 C 881.01442,714.16749 876.5657,712.90543 873.5828,711.36293 C 869.27416,709.13479 868.16129,707.34014 868.16846,702.63132 C 868.17949,695.4844 862.6203,678.8742 859.56295,676.91878 C 858.20265,676.04883 857.75707,673.12521 858.38997,669.2247 C 860.55082,655.909 847.45725,639.16939 829.4532,632.23027 C 819.25835,628.30097 817.40725,626.02288 814.89659,614.31595 C 813.79089,609.16067 811.11846,601.40301 808.9578,597.0767 C 805.46019,590.07325 805.28298,588.45242 807.34236,582.29571 C 808.61442,578.49247 810.3907,568.76308 811.2896,560.67485 C 812.1885,552.58661 813.43923,543.36242 814.0692,540.17663 C 814.90964,535.92545 814.31019,533.42637 811.8157,530.78394 C 808.19328,526.94687 800.17214,517.08082 795.79861,511.08275 C 793.40173,507.79578 793.66001,506.79893 798.4874,500.70382 C 801.42453,496.99532 806.3078,491.30608 809.33923,488.06106 C 813.59953,483.5004 814.86093,480.43165 814.89622,474.54293 C 814.95118,465.35461 824.36056,451.256 832.98629,447.43793 C 840.30559,444.19806 845.58684,437.55988 850.41662,425.52935 C 853.96442,416.69155 855.22618,415.37681 862.64475,412.78817 C 867.19438,411.20062 872.01295,409.20257 873.35284,408.34806 C 874.69254,407.49358 880.73225,406.74788 886.77434,406.69097 C 895.16332,406.61194 898.15578,405.84828 899.43372,403.46049 C 900.35412,401.74064 903.41368,399.42622 906.23262,398.31733 C 910.54015,396.62288 937.4317,390.63808 940.73776,390.63808 C 941.31111,390.63808 942.56019,388.58587 943.51368,386.0776 C 945.30486,381.36683 950.88004,381.33804 950.88004,386.03957 C 950.88004,387.33817 954.30504,389.77104 958.49107,391.44595 C 962.6771,393.12087 969.58666,397.34672 973.84567,400.83672 C 978.10486,404.32672 982.63041,407.1822 983.90247,407.1822 C 985.17453,407.1822 990.05265,403.97178 994.74254,400.04791 C 1004.3093,392.04385 1007.9754,391.21155 1042.7918,389.13907 C 1059.0155,388.17336 1065.2139,387.05481 1069.4462,384.32913 C 1072.4793,382.37575 1079.9242,377.62314 1085.9903,373.76775 C 1092.0565,369.91238 1097.9245,366.01499 1099.0306,365.10689 C 1100.1365,364.1988 1103.5738,362.14622 1106.6688,360.54567 C 1109.7641,358.9451 1113.4089,356.542 1114.7685,355.20543 C 1116.128,353.86885 1121.79,350.10393 1127.3506,346.83893 C 1132.9113,343.57391 1144.9058,335.96904 1154.005,329.93922 C 1178.8293,313.48889 1179.9839,312.94736 1184.812,315.48983 C 1187.0778,316.6829 1189.3451,318.17376 1189.8506,318.80284 C 1190.3561,319.43194 1200.1578,326.54615 1211.6321,334.61222 C 1223.1065,342.67828 1234.9607,351.26865 1237.9753,353.70192 C 1240.9896,356.13521 1249.3865,359.62657 1256.6348,361.46054 C 1298.0499,371.93909 1293.7058,369.97744 1296.4155,379.42484 C 1297.7495,384.0756 1299.4378,388.70793 1300.1674,389.71896 C 1300.8968,390.72999 1303.2751,396.98898 1305.4523,403.62782 L 1309.4111,415.69845 L 1335.3339,423.84841 L 1361.2571,431.99837 L 1371.6017,446.73119 C 1377.2911,454.83424 1385.7905,467.24233 1390.4891,474.30472 L 1399.0319,487.14543 L 1400.1607,539.88514 L 1401.2896,592.62485 L 1394.8199,597.55961 C 1390.0938,601.16439 1388.0493,604.37479 1387.2345,609.47152 C 1386.3791,614.8204 1385.0955,616.70545 1381.7346,617.54898 C 1376.3194,618.90812 1376.1065,623.45179 1381.2039,628.87782 C 1384.1646,632.02928 1384.6266,633.74916 1383.1981,636.30176 C 1382.0451,638.36207 1381.9766,640.81547 1383.0175,642.76075 C 1385.0716,646.59863 1381.1076,651.11587 1374.1547,652.86097 C 1370.5501,653.76564 1368.5916,653.08951 1366.176,650.10637 C 1362.4835,645.54639 1353.2142,644.76863 1349.9166,648.74209 C 1348.5084,650.43891 1348.1911,654.52363 1348.9962,660.59275 C 1350.3655,670.9151 1348.9424,679.24102 1345.8087,679.24102 C 1342.7295,679.24102 1338.8725,685.10391 1338.8061,689.8853 C 1338.7738,692.20104 1337.0539,696.38665 1334.9839,699.18661 C 1330.7025,704.97757 1331.9337,711.0299 1338.7874,717.8836 C 1347.2339,726.33021 1340.3254,733.34654 1320.7085,736.24448 C 1302.7881,738.89183 1290.9536,744.43205 1290.9536,750.17411 C 1290.9536,752.46439 1289.3729,753.19621 1279.9242,755.28087 C 1275.1966,756.32389 1272.2436,762.2347 1269.0481,777.05209 C 1266.1479,790.49977 1256.5065,799.47595 1242.4942,801.77413 C 1236.6572,802.73143 1234.937,804.03473 1232.8188,809.10444 C 1229.9973,815.85655 1228.2093,816.64863 1224.8701,812.62523 L 1224.8703,812.62521 z"
     id="path5376" />
  <path
     style="opacity:0.98999999000000005;fill:#aaaaff;fill-opacity:1;stroke:#dfc3a3;stroke-width:0;stroke-linecap:round;stroke-linejoin:miter;stroke-miterlimit:4;stroke-dasharray:none;stroke-dashoffset:0;stroke-opacity:0.09523812000000000"
     d="M 1556.5979,628.25676 C 1554.5865,627.74773 1551.851,625.77567 1550.5194,623.87439 C 1548.88,621.53411 1545.8681,620.41749 1541.1942,620.41749 C 1537.397,620.41749 1526.9085,617.92231 1517.8865,614.87266 C 1508.8644,611.82299 1500.3637,609.75722 1498.996,610.28203 C 1493.0201,612.57527 1479.5438,595.18196 1481.5003,587.70071 C 1482.1008,585.40512 1479.0339,581.09595 1471.6819,573.90442 C 1459.2234,561.71801 1451.8731,559.2506 1443.9786,564.60477 C 1441.2027,566.48744 1436.0363,568.44139 1432.4977,568.9469 C 1427.287,569.6913 1425.0155,571.50084 1420.5492,578.46573 C 1417.3247,583.49391 1413.3168,587.39608 1410.8984,587.86155 L 1406.7624,588.65768 L 1406.7607,518.60008 C 1406.7602,480.06841 1406.2106,390.84488 1405.5398,320.32558 C 1404.3457,194.81687 1404.3944,192.10922 1407.8391,192.13461 C 1411.2868,192.16001 1427.0052,197.73056 1461.9095,211.2969 C 1488.2767,221.54518 1498.8534,225.23764 1506.9462,227.0199 C 1510.9903,227.91054 1517.9061,229.54383 1522.3148,230.64946 C 1526.7234,231.75508 1540.7859,234.281 1553.5648,236.26264 C 1566.3436,238.24426 1582.8936,241.0919 1590.3425,242.59076 C 1598.34,244.19996 1608.1258,244.89264 1614.2396,244.28227 C 1619.9341,243.71374 1626.3924,243.94341 1628.5913,244.7926 C 1630.7903,245.64181 1641.9576,255.47736 1653.4074,266.64939 C 1664.8574,277.82139 1677.0697,288.11951 1680.5459,289.53405 C 1684.3337,291.07549 1701.6558,306.87391 1723.7786,328.96393 C 1756.5561,361.69304 1761.8199,366.21916 1770.7672,369.36821 C 1776.3091,371.31869 1784.5657,374.76999 1789.1153,377.03782 C 1793.665,379.30564 1799.5997,381.71303 1802.3038,382.38758 C 1805.0076,383.06214 1810.5161,386.43527 1814.5446,389.88341 C 1818.5729,393.33157 1822.7714,396.15279 1823.8745,396.15279 C 1824.9773,396.15279 1825.88,396.91584 1825.88,397.84847 C 1825.88,398.78108 1828.9821,400.5544 1832.7734,401.78918 C 1836.5648,403.02398 1844.63,406.27056 1850.6962,409.00383 C 1856.7624,411.73711 1865.8617,415.41828 1870.9168,417.18422 C 1875.972,418.95016 1882.176,421.44997 1884.7036,422.73937 C 1887.2311,424.02878 1893.5135,426.45654 1898.6644,428.1344 C 1912.0734,432.50233 1918.0262,439.96404 1921.6751,456.97791 C 1923.9264,467.4758 1932.7473,482.54648 1941.0389,490.06155 C 1943.924,492.67646 1950.4205,497.21317 1955.4756,500.14317 L 1964.6668,505.47045 L 1955.4756,506.63176 C 1950.4205,507.27047 1945.4986,507.07655 1944.5381,506.20086 C 1943.5777,505.32516 1938.6144,504.59027 1933.5087,504.56779 C 1927.1359,504.53975 1922.7848,503.39996 1919.63,500.9322 C 1913.4282,496.08098 1901.8995,495.98249 1900.3808,500.76775 C 1899.7677,502.69935 1897.2175,505.622 1894.7139,507.26249 C 1890.3995,510.08939 1889.7341,509.99461 1881.9742,505.44698 C 1872.3135,499.78558 1867.0815,500.63843 1865.4334,508.14308 C 1864.8045,511.00635 1861.4387,516.55251 1857.9541,520.46784 C 1854.4696,524.38317 1851.6175,528.04782 1851.6168,528.61152 C 1851.6159,529.17521 1848.3065,531.09628 1844.2624,532.88054 C 1838.7712,535.30325 1836.9095,537.18973 1836.9095,540.33121 C 1836.9095,544.03306 1835.7516,544.67681 1827.2587,545.69694 C 1821.9508,546.3345 1814.5944,546.86332 1810.9113,546.87211 C 1804.0788,546.88843 1801.1414,549.90907 1803.0701,554.9353 C 1803.7124,556.60896 1802.2902,557.79632 1798.8766,558.43648 C 1787.3155,560.6045 1773.6337,565.26303 1772.2795,567.49264 C 1767.8828,574.73049 1766.962,575.26985 1759.3429,575.07027 C 1754.9916,574.95626 1748.9499,574.29878 1745.9168,573.60915 C 1741.1115,572.51657 1739.983,573.06812 1737.1442,577.89755 C 1734.5517,582.30771 1732.2016,583.69246 1725.6389,584.67659 C 1721.103,585.35681 1715.124,585.34571 1712.3527,584.65192 C 1709.5813,583.95815 1704.6773,582.95144 1701.4547,582.41485 C 1698.2321,581.87821 1694.1747,579.86924 1692.4381,577.9504 C 1688.6648,573.78084 1680.1745,573.37343 1676.9911,577.20916 C 1674.8052,579.84308 1675.0063,582.62201 1677.8902,589.62705 C 1678.956,592.21586 1678.2611,592.84396 1674.331,592.84396 C 1671.6451,592.84396 1667.1777,594.01775 1664.4034,595.45236 C 1659.5898,597.94157 1658.985,597.7329 1651.1674,590.88549 C 1646.662,586.93907 1642.0642,583.69729 1640.9504,583.6815 C 1639.8367,583.66569 1636.1354,586.319 1632.7254,589.57769 C 1626.9203,595.12532 1626.5587,596.17212 1627.0468,606.01657 L 1627.5675,616.53054 L 1620.1468,613.61549 C 1616.0652,612.01216 1612.2516,609.20661 1611.672,607.38091 C 1608.9186,598.706 1594.2995,603.17944 1589.74,614.09203 C 1586.1433,622.70016 1583.3611,625.21439 1574.8021,627.59075 C 1567.3293,629.66554 1562.8175,629.83062 1556.5979,628.25674 L 1556.5979,628.25676 z"
     id="path5378" />
  <path
     style="opacity:0.98999999000000005;fill:#2a7fff;fill-opacity:0.99215686000000003;stroke:#dfc3a3;stroke-width:0;stroke-linecap:round;stroke-linejoin:miter;stroke-miterlimit:4;stroke-dasharray:none;stroke-dashoffset:0;stroke-opacity:0.09523812000000000"
     d="M 782.36897,156.29966 C 780.4243,153.15304 794.4048,148.45361 801.58989,149.8387 L 808.02371,151.07898 L 799.75166,153.28773 C 795.20202,154.50251 789.688,156.09508 787.49827,156.82673 C 785.28307,157.56692 783.0077,157.33308 782.36901,156.29964 L 782.36897,156.29966 z"
     id="path5380" />
  <path
     style="opacity:0.98999999000000005;fill:#2a7fff;fill-opacity:0.99215686000000003;stroke:#dfc3a3;stroke-width:0;stroke-linecap:round;stroke-linejoin:miter;stroke-miterlimit:4;stroke-dasharray:none;stroke-dashoffset:0;stroke-opacity:0.09523812000000000"
     d="M 893.50166,88.883976 C 893.50166,85.61405 899.2216,78.951421 904.18309,76.442175 C 906.902,75.067065 913.5152,72.910318 918.87897,71.649362 C 924.2428,70.388443 933.34202,66.257506 939.09956,62.469528 C 949.93189,55.342818 962.11647,51.389822 973.25129,51.389822 C 976.78805,51.389822 980.17064,50.598737 980.76822,49.631862 C 981.36575,48.664987 983.22743,48.400686 984.9052,49.044509 C 987.22223,49.933627 986.43449,50.76473 981.62941,52.500851 C 978.14991,53.758002 973.13987,54.849528 970.49588,54.92644 C 967.85184,55.003351 963.71587,56.600851 961.30471,58.47644 C 958.89349,60.351991 953.61195,62.49416 949.56783,63.236752 C 945.52371,63.979344 938.41548,67.31337 933.77177,70.645704 C 929.07873,74.013462 921.73053,77.300943 917.22765,78.047395 C 907.86796,79.598976 903.41662,81.602855 897.63769,86.86644 C 895.36287,88.93837 893.50166,89.846274 893.50166,88.883976 z"
     id="path5382" />
  <path
     style="opacity:0.98999999000000005;fill:#2a7fff;fill-opacity:0.99215686000000003;stroke:#dfc3a3;stroke-width:0;stroke-linecap:round;stroke-linejoin:miter;stroke-miterlimit:4;stroke-dasharray:none;stroke-dashoffset:0;stroke-opacity:0.09523812000000000"
     d="M 1108.6311,42.744712 C 1108.4351,34.991017 1119.0377,25.654528 1128.0388,25.654528 C 1130.7371,25.654528 1130.3697,26.648388 1125.9737,31.23677 C 1123.0322,34.307009 1118.7309,37.294546 1116.4151,37.875759 C 1114.0994,38.456973 1111.4132,40.2878 1110.4458,41.944252 C 1109.4785,43.600741 1108.6618,43.960906 1108.6311,42.744693 L 1108.6311,42.744712 z"
     id="path5384" />
  <path
     style="opacity:0.98999999000000005;fill:#0000ff;fill-opacity:1;stroke:#dfc3a3;stroke-width:0;stroke-linecap:round;stroke-linejoin:miter;stroke-miterlimit:4;stroke-dasharray:none;stroke-dashoffset:0;stroke-opacity:0.09523812000000000"
     d="M 699.71392,943.20434 C 695.6698,941.87154 686.79408,940.71746 679.99009,940.63976 C 658.68081,940.39643 649.16245,934.08276 649.16245,920.19141 C 649.16245,914.99667 648.81243,914.7632 641.02381,914.7632 C 631.30081,914.7632 626.42392,919.64787 624.56967,931.24358 C 623.49721,937.9506 622.86809,938.66026 617.99496,938.66026 C 614.59232,938.66026 611.60248,937.22724 609.88281,934.77208 C 605.57357,928.61981 596.39033,923.95437 588.58967,923.95437 C 577.26973,923.95437 571.48178,914.48402 577.78258,906.27152 C 578.6509,905.13965 580.1343,897.69483 581.07894,889.72741 C 582.02353,881.75992 583.81303,870.43831 585.0555,864.56818 C 586.97956,855.47814 586.87903,852.61549 584.37798,845.26671 C 582.76283,840.52103 580.93985,830.36671 580.32686,822.70156 C 578.8777,804.58152 581.82976,800.04233 596.25416,798.21073 C 611.29906,796.30035 617.5,793.675 621.94651,787.33305 C 624.19928,784.12003 628.34921,779.29805 631.16862,776.61759 C 635.4584,772.53917 636.2948,770.22886 636.2948,762.45776 C 636.2948,757.35037 635.36638,751.1338 634.23164,748.64333 C 632.56802,744.992 632.83496,742.75049 635.61031,737.06787 C 637.55996,733.07595 640.6461,729.73902 642.72862,729.37121 C 649.80897,728.12064 652.83892,723.52788 652.83892,714.04597 C 652.83892,704.3032 649.98827,698.36915 641.03388,689.47217 C 624.00814,672.55564 622.79015,666.71459 635.29265,661.93985 C 643.12772,658.94759 643.57818,658.36502 645.71493,648.4606 C 646.94318,642.76708 648.14452,637.84099 648.38449,637.51367 C 648.62447,637.18636 651.45394,638.28024 654.67224,639.94448 C 657.89057,641.60877 661.55951,642.5729 662.82552,642.08708 C 664.09147,641.60128 666.52147,636.37138 668.22539,630.46511 C 671.48631,619.16174 673.74835,616.17575 681.19482,613.34459 C 686.94901,611.15685 691.2202,602.97106 693.31121,590.12349 C 694.99508,579.77761 700.94594,569.17496 705.0689,569.17496 C 709.04715,569.17496 713.50068,562.73333 713.50068,556.97926 C 713.50068,553.96945 715.56451,548.70952 718.08697,545.29051 C 721.96701,540.03141 722.6234,537.26487 722.34952,527.32491 C 722.13305,519.46912 722.80432,515.09448 724.37509,514.12369 C 725.66717,513.32511 734.11394,511.61257 743.14561,510.31801 C 755.73633,508.51334 761.21167,508.45709 766.61833,510.07698 C 770.49667,511.23893 777.08952,512.18967 781.2691,512.18967 C 785.44866,512.18967 788.88752,512.81007 788.91098,513.56834 C 788.93445,514.32662 791.94002,518.25584 795.59004,522.29996 C 807.2314,535.19823 807.94452,536.90276 805.59803,546.22154 C 804.45112,550.77641 804.01548,556.50628 804.62996,558.95459 C 805.24443,561.40292 804.43109,567.93342 802.82248,573.46682 C 799.20138,585.92292 799.14375,592.50219 802.59769,599.12393 C 804.07024,601.94697 805.79315,607.3238 806.42644,611.07246 C 808.32662,622.32051 814.23601,633.46443 819.3266,635.39989 C 821.88303,636.37182 828.50215,639.30886 834.03561,641.92662 C 845.86962,647.52498 851.36833,656.1629 851.36833,669.15424 C 851.36833,673.67195 852.43726,678.46134 853.7437,679.79733 C 860.96465,687.1814 864.00491,710.92967 858.94241,720.407 C 856.84848,724.32748 836.73395,736.45437 832.3255,736.45437 C 829.56171,736.45437 818.20399,750.95759 815.52752,757.90452 C 813.90375,762.11939 810.62813,766.84369 808.24835,768.40299 C 805.43076,770.24912 803.48767,773.80581 802.67776,778.59959 C 801.99371,782.64844 799.00167,789.02187 796.02877,792.76279 C 793.0559,796.50371 790.1389,801.49518 789.54664,803.855 C 788.95432,806.21478 787.75348,808.14555 786.87802,808.14555 C 784.68664,808.14555 779.67715,818.19173 779.67715,822.58623 C 779.67715,824.56287 782.57237,829.64542 786.11098,833.88084 C 789.74408,838.22939 792.5448,843.60871 792.5448,846.23823 C 792.5448,850.60697 792.10954,850.82524 785.50452,849.76906 C 772.88607,847.75129 771.73107,850.00836 771.00287,878.10739 C 770.64669,891.85059 769.50368,903.62156 768.39566,904.95665 C 767.31053,906.26421 764.16397,908.46075 761.40338,909.83792 C 756.75629,912.15612 755.95065,911.95454 750.5384,907.11869 C 747.32329,904.24601 743.17952,901.89555 741.33011,901.89555 C 737.29982,901.89555 731.88303,907.44991 731.88303,911.58254 C 731.88303,913.21259 731.05583,915.05746 730.0448,915.68231 C 726.78976,917.69404 727.98074,929.24325 731.84134,933.10386 C 741.96057,943.22309 720.36813,950.01145 699.71392,943.20437 L 699.71392,943.20434 z"
     id="path6156" />
  <path
     style="opacity:0.98999999000000005;fill:#5599ff;fill-opacity:0.99215686000000003;stroke:#dfc3a3;stroke-width:0;stroke-linecap:round;stroke-linejoin:miter;stroke-miterlimit:4;stroke-dasharray:none;stroke-dashoffset:0;stroke-opacity:0.09523812000000000"
     d="M 454.72311,568.94518 C 454.09121,565.78572 453.57421,559.15345 453.57421,554.20682 C 453.57421,546.37917 452.75686,544.41921 447.27083,539.09154 C 441.64013,533.62344 441.1184,532.30268 442.38173,526.71594 C 443.15951,523.27614 445.58248,516.42735 447.76598,511.49643 C 454.49498,496.30051 451.83735,488.29261 440.06517,488.29261 C 431.53677,488.29261 426.68395,484.11235 425.32153,475.5922 C 423.92587,466.86435 426.32357,460.56377 434.65612,451.06305 C 437.98386,447.26875 440.70656,443.54252 440.70656,442.78246 C 440.70656,442.02239 437.01074,438.50915 432.49362,434.97526 C 422.64599,427.2711 422.29905,426.39772 421.6362,407.64476 C 421.09508,392.33649 419.35248,388.22384 412.50746,386.10057 C 401.60353,382.71823 395.56079,375.21088 389.17322,357.11051 C 385.66519,347.16998 384.19886,346.41123 351.55215,337.64423 C 343.46392,335.4722 334.99212,332.77367 332.72594,331.6475 C 329.6548,330.12132 327.37094,330.1625 323.75678,331.80921 C 317.07693,334.85276 316.33331,333.2566 322.54257,329.20305 C 325.35443,327.36739 333.97344,320.58318 341.69587,314.127 C 351.61759,305.83215 356.05311,300.80623 356.81535,296.99496 C 357.71853,292.47928 358.78425,291.60143 363.36338,291.60143 C 366.37155,291.60143 369.49421,290.43239 370.30272,289.00356 C 371.11121,287.57474 374.25436,286.12713 377.28745,285.78665 C 381.22496,285.34465 382.95886,284.07081 383.35011,281.33259 C 383.87877,277.63257 384.31952,277.71347 395.86978,283.63038 C 402.45428,287.00342 410.28006,289.7632 413.26053,289.7632 C 419.45166,289.7632 429.67715,281.69691 429.67715,276.81312 C 429.67715,275.07996 433.39958,270.61171 437.94921,266.88362 C 442.49884,263.15557 446.22127,258.81647 446.22127,257.24123 C 446.22127,255.00658 447.49894,254.6327 452.03541,255.54 C 456.22614,256.37816 458.84375,255.80305 461.41037,253.48031 C 463.36881,251.7079 468.40412,248.97419 472.59991,247.40535 C 479.93044,244.66437 480.22243,244.25094 480.06996,236.82717 C 479.91373,229.22024 480.0084,229.10143 486.22598,229.10143 C 489.69903,229.10143 495.14728,227.98345 498.33316,226.61706 C 508.66206,222.18704 521.55403,219.86123 529.09588,221.06722 L 536.46814,222.24608 L 532.85787,226.13333 C 530.87223,228.2713 526.22701,234.5306 522.53515,240.04288 C 516.87169,248.49891 516.12348,250.72533 517.74728,254.28921 C 518.80579,256.61241 520.45621,258.5132 521.41487,258.5132 C 523.13756,258.5132 528.94186,268.65362 528.94186,271.66327 C 528.94186,272.51899 526.98664,273.21908 524.59693,273.21908 C 519.57441,273.21908 510.95717,281.10492 509.45962,287.07163 C 508.89563,289.31867 508.70559,293.53196 509.0373,296.43446 C 509.58366,301.21559 510.37485,301.76487 517.45289,302.27698 C 524.77746,302.80693 525.26539,303.18575 525.26539,308.34253 C 525.26539,314.45719 521.51726,322.77338 517.11454,326.42731 C 515.53136,327.74125 514.23598,330.68847 514.23598,332.97669 C 514.23598,335.26487 513.00026,339.50643 511.48995,342.40233 C 508.30329,348.51248 507.94267,353.40325 510.55951,355.02055 C 513.56267,356.8766 512.66438,359.11763 508.47848,360.21226 C 505.52079,360.98573 504.84428,362.16583 505.72112,365.02224 C 506.36017,367.10402 507.39311,370.46173 508.01655,372.48378 C 508.78849,374.98759 508.30241,376.16026 506.49254,376.16026 C 505.03085,376.16026 501.8978,380.29628 499.53009,385.35143 C 497.16239,390.40658 494.53938,394.54261 493.70116,394.54261 C 492.863,394.54261 492.17715,395.71926 492.17715,397.15741 C 492.17715,398.59553 489.48515,400.66064 486.19493,401.74651 C 480.6691,403.57022 473.99463,412.95253 475.24745,417.13546 C 475.48686,417.9347 474.80061,420.23676 473.72254,422.25116 C 471.72598,425.98174 473.00995,432.23154 478.45585,445.29081 C 480.46647,450.11213 482.07633,451.16838 488.78638,452.06838 C 493.62857,452.71787 497.93533,454.61667 499.80596,456.9268 C 501.66585,459.22369 505.03879,460.71908 508.35969,460.71908 C 511.5377,460.71908 514.28745,461.87823 514.90074,463.47643 C 515.51508,465.07739 518.26577,466.23378 521.45962,466.23378 C 529.80625,466.23378 535.06485,472.78924 533.25616,480.93967 C 532.4709,484.47827 531.94535,491.09592 532.08829,495.64555 C 532.23121,500.19518 532.37739,506.69003 532.41309,510.07855 C 532.44877,513.46704 533.40802,517.36005 534.54467,518.72965 C 537.43684,522.21448 535.54145,524.44562 525.26539,529.6529 C 520.35335,532.14202 515.85276,534.95787 515.2641,535.91035 C 514.67539,536.86281 511.73197,538.18281 508.72303,538.84369 C 505.71408,539.50456 501.38077,542.39027 499.09338,545.2564 C 495.10182,550.25781 473.70498,565.49608 470.66723,565.50073 C 469.85985,565.50197 466.79574,567.56998 463.85814,570.09632 C 456.9977,575.9963 456.11098,575.88456 454.72311,568.94518 z"
     id="path6667" />
  <path
     style="opacity:0.98999999000000005;fill:#aaaaff;fill-opacity:1;stroke:#dfc3a3;stroke-width:0;stroke-linecap:round;stroke-linejoin:miter;stroke-miterlimit:4;stroke-dasharray:none;stroke-dashoffset:0;stroke-opacity:0.09523812000000000"
     d="M 289.58709,836.1052 C 287.67492,834.79522 281.5608,833.1932 276.00014,832.54522 C 262.22757,830.94035 243.18209,823.99125 235.28404,817.68924 C 231.16389,814.40174 227.56931,809.17068 225.52628,803.48921 C 221.53222,792.38204 217.81385,790.28123 203.92665,791.28573 C 193.7233,792.02375 192.87207,791.77327 190.55962,787.35204 C 189.20128,784.75498 183.57334,777.87367 178.0531,772.06026 C 167.45955,760.90408 161.23584,758.83445 152.4388,763.54248 C 149.05707,765.35233 148.78227,765.18959 150.11097,762.1638 C 150.93955,760.27689 152.11218,753.08384 152.71679,746.17926 C 153.55273,736.6329 154.62942,733.17031 157.21113,731.72551 C 159.07839,730.68057 162.34113,728.05768 164.46166,725.89695 C 166.58223,723.73623 170.8317,721.06818 173.90499,719.96798 C 177.90718,718.53524 179.7536,716.4918 180.4119,712.76669 C 181.64608,705.78301 184.28106,705.31584 190.40832,710.99439 C 197.04558,717.14559 204.80102,716.65406 206.13847,709.99741 C 207.52389,703.10208 211.92981,697.84152 219.23858,694.35621 C 224.70018,691.75178 226.15352,689.76158 228.07834,682.25138 C 229.34529,677.30798 231.13312,672.79913 232.0513,672.23165 C 234.14262,670.93915 234.24378,661.72042 232.19238,659.37643 C 229.73315,656.56645 226.36779,643.04893 226.36779,635.98097 C 226.36779,631.11829 225.0742,628.37303 221.27119,625.16483 C 214.15343,619.16037 209.82367,612.51263 209.82367,607.58873 C 209.82367,603.68713 210.59121,603.40217 221.09937,603.40217 C 227.30102,603.40217 235.67336,602.41397 239.70459,601.20619 L 247.03413,599.01022 L 246.06021,588.26989 C 245.52457,582.36268 244.21266,576.47682 243.14485,575.19018 C 241.1058,572.73327 244.07742,559.28452 246.65935,559.28452 C 247.37018,559.28452 248.51097,554.3416 249.19446,548.30024 C 250.82473,533.89042 253.22005,531.70886 267.39983,531.71956 L 278.75749,531.72816 L 286.8372,548.72325 C 291.28098,558.07055 296.96007,567.78636 299.45735,570.31393 L 303.99788,574.90952 L 310.72926,567.09702 C 316.98159,559.84055 321.95602,557.09461 321.95602,560.89974 C 321.95602,561.78809 324.64444,563.58116 327.93029,564.8843 C 337.96536,568.86408 338.53723,569.77614 335.52225,576.99202 C 334.03784,580.54472 333.33058,585.04959 333.95053,587.0029 C 335.81727,592.88456 344.10514,601.56393 347.85472,601.56393 C 352.00514,601.56393 352.12837,602.76287 348.61043,608.91687 C 344.93994,615.33774 345.23345,623.10158 349.62457,635.74307 L 353.39608,646.6007 L 349.34387,659.46834 C 347.11519,666.54555 345.07666,673.24943 344.8138,674.36586 C 344.51825,675.62108 336.59393,676.76268 324.04894,677.35728 C 308.48975,678.09478 303.04764,679.03323 300.69652,681.38435 C 296.67025,685.41062 293.98556,697.76257 295.44538,705.54408 C 296.47939,711.0559 297.74865,712.16557 306.96163,715.61259 C 321.69137,721.12367 321.95602,721.49456 321.95602,736.625 C 321.95602,743.93307 322.84924,752.47467 323.94097,755.60638 C 325.94988,761.36908 333.8222,767.2707 342.35825,769.4131 C 346.94962,770.56549 347.022,770.85614 346.7685,787.12869 C 346.47032,806.26917 345.50779,807.92937 329.43089,817.0339 C 323.80314,820.22097 318.78507,823.36805 318.27955,824.02748 C 317.77404,824.68695 314.53885,826.19252 311.09025,827.37331 C 307.64163,828.55413 302.17488,831.53776 298.94189,834.00367 C 293.89348,837.8543 292.57295,838.15094 289.58709,836.10526 L 289.58709,836.1052 z"
     id="path6669" />
  <path
     style="opacity:0.98999999000000005;fill:#5599ff;fill-opacity:0.98431373000000000;stroke:#dfc3a3;stroke-width:0;stroke-linecap:round;stroke-linejoin:miter;stroke-miterlimit:4;stroke-dasharray:none;stroke-dashoffset:0;stroke-opacity:0.09523812000000000"
     d="M 177.28951,658.39759 C 172.60894,655.39954 171.15985,652.96459 170.1842,646.45849 C 168.78106,637.10169 164.09928,630.30217 156.2733,626.2552 C 150.7644,623.40645 138.13249,605.77656 138.13249,600.93676 C 138.13249,599.48367 136.66902,596.48744 134.88032,594.27849 C 131.64396,590.2818 131.54779,590.27628 115.11929,593.14985 C 106.0394,594.73807 98.022253,596.04013 97.303374,596.04336 C 94.164698,596.05748 88.654202,587.69548 87.568926,581.27176 C 86.880452,577.19656 83.946757,571.59812 80.549716,567.87671 C 66.583191,552.57652 66.080286,548.40805 77.248448,540.51138 C 82.982988,536.45665 84.864643,533.5148 87.319496,524.76579 C 91.005709,511.62821 91.109937,507.06619 87.786849,504.30829 C 85.996573,502.8225 85.634569,500.42044 86.573521,496.25731 C 89.008043,485.46283 92.033724,482.76421 106.72146,478.28715 C 114.39273,475.9488 121.49646,473.4738 122.50749,472.78711 C 123.51852,472.10044 129.98437,469.68833 136.87604,467.42689 C 146.35461,464.3166 152.84626,460.42632 163.53045,451.45358 C 171.29869,444.9297 180.39473,437.36378 183.74387,434.64046 C 187.09299,431.91711 190.81541,428.81557 192.01593,427.74814 C 193.21643,426.6807 197.9211,423.78548 202.47073,421.31432 C 207.02036,418.84314 211.32404,416.0086 212.03446,415.01533 C 213.19567,413.3918 218.07268,416.9997 228.65955,427.31428 C 230.53264,429.13921 231.88249,433.17893 231.88249,436.95972 C 231.88249,441.79625 233.51165,445.26838 238.23319,450.49456 C 241.92637,454.58242 245.32288,460.81309 246.34988,465.38391 C 247.32117,469.70689 249.84021,474.85027 251.94771,476.81373 C 254.05525,478.77717 255.77955,480.79257 255.77955,481.29241 C 255.77955,481.79222 252.88433,485.09641 249.34573,488.63502 C 245.80712,492.1736 242.9119,496.28208 242.9119,497.76491 C 242.9119,499.24776 242.19709,500.46099 241.32341,500.46099 C 238.84424,500.46099 233.71424,515.50255 233.77918,522.58127 C 233.84661,529.93051 237.31062,535.38746 241.90837,535.38746 C 244.69124,535.38746 244.92878,536.59706 243.78258,544.93088 C 243.06065,550.17976 241.36113,555.5832 240.00582,556.93851 C 236.23905,560.70529 234.84608,571.71511 237.15935,579.43614 C 241.87056,595.16075 239.10032,597.88746 218.41325,597.88746 C 203.5172,597.88746 202.47073,598.62399 202.47073,609.10829 C 202.47073,612.87891 204.83354,617.14208 210.28323,623.20426 C 214.5801,627.98406 218.60108,632.30842 219.21872,632.81393 C 219.83639,633.31945 220.75326,638.12077 221.25626,643.48355 L 222.17078,653.23401 L 212.54299,652.03114 C 206.28613,651.24937 202.47758,651.53625 201.66536,652.85048 C 200.97793,653.96276 198.81694,654.87276 196.86312,654.87276 C 194.90929,654.87276 192.27751,656.52717 191.01472,658.54923 C 188.11626,663.19035 184.71328,663.15276 177.28953,658.39759 L 177.28951,658.39759 z"
     id="path6671" />
  <path
     style="opacity:0.98999999000000005;fill:#ababff;fill-opacity:0.99215686;stroke:#dfc3a3;stroke-width:0;stroke-linecap:round;stroke-linejoin:miter;stroke-miterlimit:4;stroke-dasharray:none;stroke-dashoffset:0;stroke-opacity:0.09523812000000000"
     d="M 142.34043,744.45351 C 140.10514,742.19697 136.58951,738.90309 134.52791,737.13378 C 132.36928,735.28121 130.77955,731.67345 130.77955,728.62724 C 130.77955,722.22277 128.59564,720.33989 118.2201,717.79893 C 112.19549,716.32353 108.83834,716.42364 104.43334,718.21013 C 97.624735,720.9714 95.77547,720.49439 85.132216,713.23145 C 80.752308,710.24261 72.480249,706.1857 66.749863,704.2161 C 61.019496,702.24654 53.607602,699.38237 50.278963,697.85132 C 46.95036,696.32027 41.1599,694.00579 37.411316,692.70799 C 31.118043,690.52921 30.595727,689.79908 30.595727,683.18042 C 30.595727,677.17191 31.256904,675.91847 34.683154,675.43141 C 37.398135,675.04549 40.428007,671.80511 43.706922,665.78068 C 46.421922,660.79237 49.223282,656.71099 49.932216,656.71099 C 50.641168,656.71099 54.358301,653.7523 58.192584,650.13612 C 63.333319,645.28774 66.176426,643.86478 69.019551,644.7172 C 88.213191,650.47185 92.146058,647.06257 92.235066,624.59241 C 92.269569,615.88634 93.211702,608.65215 94.53286,606.94869 C 96.511187,604.39788 105.46073,602.02704 124.68108,598.96196 C 130.30714,598.06478 130.64782,598.38042 133.57937,607.20649 C 137.18192,618.05279 142.98181,625.40007 153.83663,632.86838 C 160.74692,637.62279 162.05962,639.64121 164.0628,648.59233 C 165.84179,656.54162 167.6979,659.8814 172.27852,663.37522 C 182.92054,671.49228 195.11779,672.30215 195.11779,664.89171 C 195.11779,663.42538 196.72337,662.2257 198.68576,662.2257 C 200.64815,662.2257 202.81398,661.31923 203.49871,660.21134 C 204.67413,658.30946 217.50279,659.21722 223.84545,661.65112 C 226.66578,662.73336 227.29514,670.62676 224.6895,672.23713 C 223.76644,672.80759 222.47207,676.37206 221.81312,680.15812 C 220.8106,685.91833 219.4128,687.60193 213.24911,690.47325 C 208.19902,692.82581 204.93043,696.00445 202.85279,700.58355 C 201.18604,704.25695 199.63459,707.56362 199.40501,707.93171 C 199.17547,708.29978 196.15806,706.85217 192.69972,704.7148 C 182.52997,698.42956 174.8972,700.405 174.8972,709.32228 C 174.8972,712.33158 173.4967,713.71176 169.56747,714.57478 C 164.17806,715.75847 150.74257,727.5286 147.17804,734.18899 C 146.11249,736.17996 145.77508,740.24208 146.42823,743.21586 C 147.84619,749.67178 147.58716,749.7502 142.34041,744.45351 L 142.34043,744.45351 z"
     id="path6673" />
  <path
     style="opacity:0.98999999000000005;fill:#5599ff;fill-opacity:1;stroke:#dfc3a3;stroke-width:0;stroke-linecap:round;stroke-linejoin:miter;stroke-miterlimit:4;stroke-dasharray:none;stroke-dashoffset:0;stroke-opacity:0.09523812000000000"
     d="M 655.59573,364.05246 C 646.811,360.9827 641.80896,355.36533 641.80896,348.5697 C 641.80896,341.25163 634.53488,333.18158 627.93865,333.18158 C 625.45707,333.18158 623.42661,333.87781 623.42661,334.72877 C 623.42661,335.57972 618.4956,337.76895 612.46883,339.59371 C 600.79102,343.1295 584.14126,342.65744 575.09128,338.53401 C 570.23891,336.32312 566.07295,325.75198 563.56448,309.28452 C 561.5156,295.83428 560.00804,293.67851 546.36569,284.6909 C 534.43437,276.83053 533.35308,275.59397 533.35308,269.80989 C 533.35308,261.71958 530.05174,254.50428 525.72117,253.1298 C 521.33806,251.73867 521.42451,250.06866 526.02828,247.19355 C 528.06582,245.9211 531.05087,241.58606 532.6617,237.56018 C 534.27253,233.5343 536.17192,230.2404 536.88253,230.2404 C 540.06595,230.2404 546.22073,222.31801 546.22073,218.22026 C 546.22073,212.61524 549.41214,212.4363 559.31097,217.4863 C 566.12132,220.9607 567.09961,221.04073 571.05755,218.44739 C 575.23718,215.7088 575.44179,215.82062 577.46442,221.94924 C 579.97045,229.54264 593.17624,243.11884 606.33462,251.62926 C 618.35942,259.40652 627.29178,259.91489 633.16553,253.15628 C 635.6617,250.28404 640.02464,248.05049 644.54716,247.32959 C 649.04176,246.61314 653.18582,244.50167 655.25144,241.87566 C 659.03246,237.06897 659.37806,237.09956 682.50733,244.28928 C 698.42619,249.23764 722.27067,254.69831 749.62018,259.65888 C 759.88144,261.52002 770.95591,264.4281 774.23016,266.12128 C 781.54418,269.90349 803.73176,269.05987 821.95602,264.30663 C 830.56277,262.06184 846.50047,260.78513 878.94132,259.74182 C 905.84383,258.8766 926.31922,257.40674 929.79236,256.09138 C 934.98203,254.12592 936.41374,254.39886 943.11957,258.63206 C 949.55115,262.69215 950.63249,264.2907 950.63249,269.73831 C 950.63249,274.89669 951.63917,276.62244 955.9479,278.85059 C 958.87133,280.36237 962.11867,284.05298 963.16411,287.05193 C 964.22975,290.10882 967.54803,293.78864 970.71635,295.42706 C 977.3267,298.84535 977.46793,299.89274 972.97624,312.18147 C 967.09917,328.26035 966.80591,328.52941 961.01089,323.15877 C 954.31325,316.95165 948.30492,315.69467 937.38295,318.21577 C 924.35428,321.22312 918.63657,320.83443 911.17882,316.43424 C 900.07354,309.88196 882.78946,314.42877 859.98429,329.90178 L 849.29933,337.15139 L 837.00635,335.25189 C 830.24521,334.20713 817.26852,332.87116 808.16926,332.28303 C 799.06999,331.69489 787.48911,330.77213 782.43396,330.23244 C 773.76966,329.30744 772.61054,329.72016 762.21337,337.43248 C 750.52635,346.10154 743.0969,348.31989 726.80733,348.00419 C 718.6192,347.84548 715.66376,348.8086 707.53038,354.28594 C 699.63253,359.60467 696.24098,360.75511 688.45907,360.75511 C 683.25317,360.75511 676.62455,361.99083 673.72865,363.50114 C 667.69235,366.64928 663.40038,366.77978 655.59573,364.05248 L 655.59573,364.05246 z"
     id="path6675" />
  <path
     style="opacity:0.98999999000000005;fill:#aaaaff;fill-opacity:1;stroke:#dfc3a3;stroke-width:0;stroke-linecap:round;stroke-linejoin:miter;stroke-miterlimit:4;stroke-dasharray:none;stroke-dashoffset:0;stroke-opacity:0.09523812000000000"
     d="M 1387.9311,458.93274 C 1381.9589,450.22709 1374.9087,439.79053 1372.264,435.74037 C 1366.6844,427.19573 1364.1019,425.8723 1335.6298,416.96619 L 1314.4076,410.32788 L 1307.3281,389.67753 C 1303.4345,378.31983 1299.3356,368.0275 1298.2195,366.80568 C 1297.1034,365.58389 1289.159,362.81864 1280.5652,360.66071 C 1271.9715,358.50281 1261.2178,355.76676 1256.6682,354.58062 C 1248.6677,352.49485 1240.1778,348.59886 1238.2858,346.14503 C 1237.7803,345.48939 1234.4715,342.96467 1230.9329,340.53452 C 1227.3943,338.10437 1224.0855,335.66261 1223.5799,335.10838 C 1223.0744,334.55413 1219.7656,332.06956 1216.227,329.58706 C 1212.6884,327.10452 1208.966,324.42687 1207.9549,323.63667 C 1181.423,302.89978 1183.0591,303.11285 1160.9981,317.52068 C 1150.6226,324.29684 1140.1923,330.7254 1137.8199,331.80634 C 1135.4475,332.88731 1133.5064,334.3138 1133.5064,334.97638 C 1133.5064,335.63893 1129.9908,338.1329 1125.6939,340.51849 C 1121.397,342.9041 1117.4678,345.42689 1116.9623,346.12476 C 1116.4568,346.82263 1112.7344,349.16266 1108.6902,351.32487 C 1104.6461,353.48706 1099.2693,356.79735 1096.7417,358.68103 C 1094.2141,360.5647 1087.1829,365.20347 1081.1167,368.98939 C 1075.0505,372.77529 1067.9437,377.36235 1065.3238,379.18279 C 1061.5181,381.8272 1056.0335,382.61741 1038.0459,383.11288 L 1015.5315,383.73305 L 1016.5167,377.29923 C 1020.2076,353.19752 1020.0859,348.72858 1015.5994,343.61255 C 1011.5365,338.97954 1010.8319,338.80393 1004.3968,340.82095 C 997.84963,342.87314 997.2711,342.70257 991.97275,337.15836 C 987.74792,332.73746 984.82983,331.34334 979.8011,331.34334 C 975.29987,331.34334 973.44724,330.60921 974.00235,329.04555 C 982.75456,304.39248 985.22967,295.74763 983.69024,295.2082 C 977.55503,293.05836 969.90347,286.78053 969.90347,283.89667 C 969.90347,280.19382 962.69389,272.51981 959.21514,272.51981 C 954.10158,272.51981 957.61551,269.20943 963.92921,268.0788 C 967.72057,267.39985 975.37222,264.4529 980.93288,261.53 C 986.49354,258.60708 994.52645,254.48283 998.78378,252.36498 C 1003.0411,250.24711 1007.9059,246.26391 1009.5944,243.5134 C 1011.283,240.7629 1015.4736,236.13671 1018.907,233.23301 C 1024.8072,228.24305 1026.4825,227.86481 1049.4567,226.3352 C 1100.6246,222.92851 1115.9364,216.5172 1119.4884,197.01196 C 1120.1468,193.39625 1121.7715,188.95277 1123.0988,187.13757 C 1125.3806,184.01706 1126.0709,183.99965 1135.7664,186.81821 C 1141.4064,188.45777 1147.5798,189.79923 1149.4852,189.79923 C 1151.3907,189.79923 1156.1589,191.43542 1160.0814,193.4352 C 1164.0038,195.43498 1170.176,198.03676 1173.7973,199.21695 C 1177.4186,200.39711 1185.0714,203.62097 1190.8035,206.38103 C 1214.9544,218.00978 1275.7336,228.82208 1281.9586,222.59706 C 1283.4015,221.15404 1292.5253,220.56325 1310.284,220.76285 C 1346.3804,221.16855 1363.4026,217.04105 1378.2863,204.27373 C 1384.0091,199.36476 1390.7244,194.57535 1393.2094,193.63057 L 1397.7275,191.91279 L 1398.6162,332.85969 C 1399.105,410.38048 1399.3439,474.02134 1399.1473,474.28384 C 1398.9506,474.54632 1393.9033,467.63833 1387.9311,458.93272 L 1387.9311,458.93274 z"
     id="path6677" />
  <g
     id="g6685"
     style="fill:#ffcd00;fill-opacity:1">
    <path
       id="path6679"
       d="M 595.82617,1042.4597 C 593.97052,1040.9801 590.44722,1039.902 583.67137,1038.7406 L 574.12969,1037.1051 L 574.11561,1033.3474 C 574.10788,1031.2806 573.72524,1028.995 573.26532,1028.2681 C 572.72035,1027.4069 572.88532,1026.2952 573.73895,1025.0765 C 575.41336,1022.6859 575.45913,1013.4985 573.80787,1011.2403 C 571.94222,1008.6888 563.31746,1008.2684 560.62154,1010.5976 C 557.7022,1013.1197 554.72168,1019.3017 554.24112,1023.8314 C 554.01237,1025.9874 553.1571,1030.1334 552.34045,1033.0447 C 550.87928,1038.2537 550.78211,1038.3598 546.24129,1039.7083 C 536.88876,1042.4857 528.85904,1041.1743 523.8901,1036.058 C 522.15336,1034.2697 520.19598,1032.8066 519.5404,1032.8066 C 518.88482,1032.8066 517.59981,1031.9794 516.68483,1030.9684 C 515.19616,1029.3234 515.18026,1029.1301 516.53366,1029.1301 C 517.36549,1029.1301 519.79753,1027.2689 521.93821,1024.9941 C 525.68525,1021.0123 526.02969,1020.8581 531.17654,1020.8581 C 539.01387,1020.8581 540.47697,1019.1919 540.90438,1009.7803 C 541.08685,1005.7628 541.6059,1002.4757 542.0579,1002.4757 C 544.01988,1002.4757 542.79278,997.33301 540.41026,995.57069 C 539.05211,994.56604 536.90255,992.7939 535.63352,991.63257 C 533.6328,989.80161 532.70906,989.5983 528.68199,990.10232 L 524.03778,990.68358 L 524.34537,985.67556 C 524.51452,982.92111 524.25023,979.20899 523.75803,977.4264 C 522.7804,973.88577 524.61651,968.27113 527.54427,965.84842 C 528.36927,965.16571 529.30805,963.20112 529.63045,961.48261 C 529.95283,959.76409 530.58419,958.35806 531.03345,958.35806 C 531.48269,958.35806 531.85028,954.5295 531.85028,949.85015 C 531.85028,939.05634 532.82056,935.75032 536.99937,932.3058 C 540.31044,929.57653 540.34294,929.48267 539.85206,924.06917 C 539.38576,918.92661 539.51518,918.44678 541.97823,916.18705 C 545.43035,913.01989 546.55616,909.79242 546.55616,903.06284 C 546.55616,900.01409 547.19149,895.33418 547.96802,892.66304 L 549.37987,887.80644 L 558.76762,891.01956 C 563.93092,892.78677 568.36222,894.55054 568.61498,894.93904 C 568.86774,895.32753 569.90175,895.80004 570.91278,895.98904 C 573.56267,896.48439 573.85702,901.25137 571.40053,903.8881 C 568.79509,906.6847 567.69586,909.93756 567.69586,914.85088 C 567.69586,918.61594 568.10678,919.40629 571.95334,923.03971 C 574.29494,925.25157 577.08677,927.33434 578.15738,927.6681 C 579.22799,928.00185 580.44564,928.73619 580.86326,929.29995 C 581.41073,930.03897 581.75266,930.00439 582.08875,929.17607 C 582.6405,927.81625 586.99733,927.6123 586.99733,928.94629 C 586.99733,929.45181 588.58765,929.86541 590.53135,929.86541 C 592.89808,929.86541 594.61484,930.47257 595.72895,931.70364 C 596.64393,932.71467 597.94643,933.54188 598.62342,933.54188 C 599.30041,933.54188 601.74643,935.40721 604.05902,937.68706 C 609.27145,942.82571 612.05893,944.29669 618.1036,945.09853 L 622.84292,945.72726 L 622.84292,949.62089 C 622.84292,954.95136 625.33217,957.8839 631.11485,959.36596 L 635.71057,960.54382 L 635.7325,966.11452 C 635.76038,973.19847 637.02253,978.67061 638.86659,979.7026 C 639.65833,980.14571 640.30616,980.94515 640.30616,981.47919 C 640.30616,984.02229 646.18627,989.66224 650.39672,991.15766 L 654.84094,992.73611 L 654.36001,997.39599 C 654.0291,1000.6023 654.48584,1004.2183 655.82424,1008.988 C 656.89407,1012.8007 657.76581,1018.3754 657.76143,1021.3762 C 657.75414,1026.3634 657.47268,1027.1286 654.48663,1030.279 C 652.68988,1032.1747 650.96231,1033.7257 650.64758,1033.7257 C 650.33288,1033.7257 649.08326,1032.7951 647.87068,1031.6577 C 645.93045,1029.8378 644.60027,1029.5699 636.78203,1029.4245 C 631.89584,1029.3337 626.1044,1028.9766 623.91213,1028.631 C 621.393,1028.2339 619.54964,1028.3793 618.90294,1029.026 C 618.34014,1029.5887 617.16522,1030.0492 616.29199,1030.0492 C 615.41877,1030.0492 613.80678,1031.1866 612.70984,1032.5768 C 611.1019,1034.6145 610.81929,1035.8679 611.25151,1039.0444 C 611.865,1043.5533 611.94156,1043.5 603.97751,1044.1154 C 599.22242,1044.4829 598.0698,1044.2488 595.82618,1042.4598 L 595.82617,1042.4597 z"
       style="opacity:0.98999999000000005;fill:#aaaaff;fill-opacity:1;stroke:#dfc3a3;stroke-width:0;stroke-linecap:round;stroke-linejoin:miter;stroke-miterlimit:4;stroke-dasharray:none;stroke-dashoffset:0;stroke-opacity:0.09523812000000000" />
    <path
       id="path6681"
       d="M 572.75101,1057.9524 C 567.54133,1056.8863 564.31134,1055.3958 562.79086,1053.3561 C 560.23829,1049.9318 561.31609,1048.502 566.02805,1049.0614 C 575.73806,1050.2143 578.06136,1051.4406 579.21058,1056.0194 C 579.7939,1058.3436 579.63713,1058.5335 577.21646,1058.4353 C 575.7715,1058.3766 573.76204,1058.1594 572.75101,1057.9525 L 572.75101,1057.9524 z"
       style="opacity:0.98999999000000005;fill:#ababff;fill-opacity:0.99215686;stroke:#dfc3a3;stroke-width:0;stroke-linecap:round;stroke-linejoin:miter;stroke-miterlimit:4;stroke-dasharray:none;stroke-dashoffset:0;stroke-opacity:0.09523812000000000" />
    <path
       id="path6683"
       d="M 557.94774,1077.4614 C 557.67315,1076.7459 557.58273,1074.988 557.74681,1073.5552 C 558.19796,1069.6154 562.2218,1069.4325 564.92509,1073.2289 C 566.03789,1074.7917 566.71594,1076.6761 566.43185,1077.4164 C 565.73756,1079.2257 558.63921,1079.2634 557.94774,1077.4614 z"
       style="opacity:0.98999999000000005;fill:#acacff;fill-opacity:0.98431373;stroke:#dfc3a3;stroke-width:0;stroke-linecap:round;stroke-linejoin:miter;stroke-miterlimit:4;stroke-dasharray:none;stroke-dashoffset:0;stroke-opacity:0.09523812000000000" />
  </g>
</svg>
